G04 (created by PCBNEW (2010-08-29 BZR 2466)-unstable) date Mi 01 Sep 2010 23:33:09 CEST*
G01*
G70*
G90*
%MOIN*%
G04 Gerber Fmt 3.4, Leading zero omitted, Abs format*
%FSLAX34Y34*%
G04 APERTURE LIST*
%ADD10C,0.001000*%
%ADD11C,0.008000*%
G04 APERTURE END LIST*
G54D10*
G54D10*
X14700Y-21950D02*
X15100Y-22350D01*
X15100Y-21950D02*
X14700Y-22350D01*
X14750Y-25000D02*
X15150Y-25400D01*
X15150Y-25000D02*
X14750Y-25400D01*
X15250Y-20950D02*
X15650Y-21350D01*
X15650Y-20950D02*
X15250Y-21350D01*
X15700Y-21950D02*
X16100Y-22350D01*
X16100Y-21950D02*
X15700Y-22350D01*
X15750Y-25000D02*
X16150Y-25400D01*
X16150Y-25000D02*
X15750Y-25400D01*
X16700Y-21800D02*
X17100Y-22200D01*
X17100Y-21800D02*
X16700Y-22200D01*
X17000Y-37050D02*
X17400Y-37450D01*
X17400Y-37050D02*
X17000Y-37450D01*
X17150Y-25000D02*
X17550Y-25400D01*
X17550Y-25000D02*
X17150Y-25400D01*
X18100Y-34350D02*
X18500Y-34750D01*
X18500Y-34350D02*
X18100Y-34750D01*
X22250Y-20150D02*
X22650Y-20550D01*
X22650Y-20150D02*
X22250Y-20550D01*
X22850Y-37850D02*
X23250Y-38250D01*
X23250Y-37850D02*
X22850Y-38250D01*
X23050Y-36500D02*
X23450Y-36900D01*
X23450Y-36500D02*
X23050Y-36900D01*
X24900Y-35650D02*
X25300Y-36050D01*
X25300Y-35650D02*
X24900Y-36050D01*
X26050Y-35450D02*
X26450Y-35850D01*
X26450Y-35450D02*
X26050Y-35850D01*
X26700Y-19300D02*
X27100Y-19700D01*
X27100Y-19300D02*
X26700Y-19700D01*
X26700Y-34500D02*
X27100Y-34900D01*
X27100Y-34500D02*
X26700Y-34900D01*
X27450Y-33700D02*
X27850Y-34100D01*
X27850Y-33700D02*
X27450Y-34100D01*
X28800Y-31950D02*
X29200Y-32350D01*
X29200Y-31950D02*
X28800Y-32350D01*
X29250Y-32450D02*
X29650Y-32850D01*
X29650Y-32450D02*
X29250Y-32850D01*
X29750Y-19950D02*
X30150Y-20350D01*
X30150Y-19950D02*
X29750Y-20350D01*
X30450Y-32200D02*
X30850Y-32600D01*
X30850Y-32200D02*
X30450Y-32600D01*
X31500Y-23700D02*
X31900Y-24100D01*
X31900Y-23700D02*
X31500Y-24100D01*
X31750Y-21000D02*
X32150Y-21400D01*
X32150Y-21000D02*
X31750Y-21400D01*
X32450Y-34800D02*
X32850Y-35200D01*
X32850Y-34800D02*
X32450Y-35200D01*
X32600Y-36950D02*
X33000Y-37350D01*
X33000Y-36950D02*
X32600Y-37350D01*
X32650Y-33900D02*
X33050Y-34300D01*
X33050Y-33900D02*
X32650Y-34300D01*
X33850Y-29250D02*
X34250Y-29650D01*
X34250Y-29250D02*
X33850Y-29650D01*
X34450Y-27400D02*
X34850Y-27800D01*
X34850Y-27400D02*
X34450Y-27800D01*
X34600Y-28750D02*
X35000Y-29150D01*
X35000Y-28750D02*
X34600Y-29150D01*
X35650Y-28250D02*
X36050Y-28650D01*
X36050Y-28250D02*
X35650Y-28650D01*
X36150Y-27350D02*
X36550Y-27750D01*
X36550Y-27350D02*
X36150Y-27750D01*
X36650Y-28250D02*
X37050Y-28650D01*
X37050Y-28250D02*
X36650Y-28650D01*
X39150Y-20900D02*
X39550Y-21300D01*
X39550Y-20900D02*
X39150Y-21300D01*
X39500Y-20250D02*
X39900Y-20650D01*
X39900Y-20250D02*
X39500Y-20650D01*
X39650Y-35650D02*
X40050Y-36050D01*
X40050Y-35650D02*
X39650Y-36050D01*
X39900Y-25800D02*
X40300Y-26200D01*
X40300Y-25800D02*
X39900Y-26200D01*
X41600Y-28400D02*
X42000Y-28800D01*
X42000Y-28400D02*
X41600Y-28800D01*
X42105Y-20265D02*
X42096Y-20353D01*
X42070Y-20438D01*
X42028Y-20516D01*
X41972Y-20585D01*
X41904Y-20642D01*
X41826Y-20684D01*
X41741Y-20710D01*
X41653Y-20719D01*
X41565Y-20711D01*
X41480Y-20686D01*
X41401Y-20645D01*
X41332Y-20590D01*
X41275Y-20522D01*
X41232Y-20444D01*
X41205Y-20359D01*
X41196Y-20271D01*
X41203Y-20183D01*
X41227Y-20098D01*
X41268Y-20019D01*
X41323Y-19949D01*
X41391Y-19892D01*
X41468Y-19849D01*
X41553Y-19821D01*
X41641Y-19811D01*
X41729Y-19817D01*
X41814Y-19841D01*
X41893Y-19881D01*
X41963Y-19936D01*
X42021Y-20003D01*
X42065Y-20080D01*
X42093Y-20165D01*
X42104Y-20253D01*
X42105Y-20265D01*
X42105Y-25435D02*
X42096Y-25523D01*
X42070Y-25608D01*
X42028Y-25686D01*
X41972Y-25755D01*
X41904Y-25812D01*
X41826Y-25854D01*
X41741Y-25880D01*
X41653Y-25889D01*
X41565Y-25881D01*
X41480Y-25856D01*
X41401Y-25815D01*
X41332Y-25760D01*
X41275Y-25692D01*
X41232Y-25614D01*
X41205Y-25529D01*
X41196Y-25441D01*
X41203Y-25353D01*
X41227Y-25268D01*
X41268Y-25189D01*
X41323Y-25119D01*
X41391Y-25062D01*
X41468Y-25019D01*
X41553Y-24991D01*
X41641Y-24981D01*
X41729Y-24987D01*
X41814Y-25011D01*
X41893Y-25051D01*
X41963Y-25106D01*
X42021Y-25173D01*
X42065Y-25250D01*
X42093Y-25335D01*
X42104Y-25423D01*
X42105Y-25435D01*
X15748Y-17619D02*
X15748Y-19389D01*
X16633Y-18504D02*
X14863Y-18504D01*
X15748Y-36517D02*
X15748Y-38287D01*
X16633Y-37402D02*
X14863Y-37402D01*
X42520Y-17619D02*
X42520Y-19389D01*
X43405Y-18504D02*
X41635Y-18504D01*
X42520Y-36517D02*
X42520Y-38287D01*
X43405Y-37402D02*
X41635Y-37402D01*
G54D11*
X14477Y-41206D02*
X14477Y-40406D01*
X14668Y-40406D01*
X14782Y-40444D01*
X14858Y-40520D01*
X14897Y-40596D01*
X14935Y-40749D01*
X14935Y-40863D01*
X14897Y-41015D01*
X14858Y-41092D01*
X14782Y-41168D01*
X14668Y-41206D01*
X14477Y-41206D01*
X15277Y-41206D02*
X15277Y-40672D01*
X15277Y-40825D02*
X15316Y-40749D01*
X15354Y-40711D01*
X15430Y-40672D01*
X15506Y-40672D01*
X15772Y-41206D02*
X15772Y-40672D01*
X15772Y-40406D02*
X15734Y-40444D01*
X15772Y-40482D01*
X15811Y-40444D01*
X15772Y-40406D01*
X15772Y-40482D01*
X16268Y-41206D02*
X16192Y-41168D01*
X16153Y-41092D01*
X16153Y-40406D01*
X16687Y-41206D02*
X16611Y-41168D01*
X16572Y-41092D01*
X16572Y-40406D01*
X17601Y-41206D02*
X17601Y-40406D01*
X17868Y-40977D01*
X18135Y-40406D01*
X18135Y-41206D01*
X18858Y-41206D02*
X18858Y-40787D01*
X18820Y-40711D01*
X18744Y-40672D01*
X18592Y-40672D01*
X18515Y-40711D01*
X18858Y-41168D02*
X18782Y-41206D01*
X18592Y-41206D01*
X18515Y-41168D01*
X18477Y-41092D01*
X18477Y-41015D01*
X18515Y-40939D01*
X18592Y-40901D01*
X18782Y-40901D01*
X18858Y-40863D01*
X19239Y-40672D02*
X19239Y-41472D01*
X19239Y-40711D02*
X19316Y-40672D01*
X19468Y-40672D01*
X19544Y-40711D01*
X19582Y-40749D01*
X19620Y-40825D01*
X19620Y-41053D01*
X19582Y-41130D01*
X19544Y-41168D01*
X19468Y-41206D01*
X19316Y-41206D01*
X19239Y-41168D01*
X19963Y-41130D02*
X20002Y-41168D01*
X19963Y-41206D01*
X19925Y-41168D01*
X19963Y-41130D01*
X19963Y-41206D01*
X19963Y-40711D02*
X20002Y-40749D01*
X19963Y-40787D01*
X19925Y-40749D01*
X19963Y-40711D01*
X19963Y-40787D01*
X13687Y-42362D02*
X14087Y-42762D01*
X14087Y-42362D02*
X13687Y-42762D01*
X14897Y-42886D02*
X14439Y-42886D01*
X14668Y-42886D02*
X14668Y-42086D01*
X14592Y-42200D01*
X14516Y-42276D01*
X14439Y-42314D01*
X15239Y-42810D02*
X15278Y-42848D01*
X15239Y-42886D01*
X15201Y-42848D01*
X15239Y-42810D01*
X15239Y-42886D01*
X15773Y-42086D02*
X15849Y-42086D01*
X15925Y-42124D01*
X15963Y-42162D01*
X16001Y-42238D01*
X16040Y-42391D01*
X16040Y-42581D01*
X16001Y-42733D01*
X15963Y-42810D01*
X15925Y-42848D01*
X15849Y-42886D01*
X15773Y-42886D01*
X15697Y-42848D01*
X15659Y-42810D01*
X15620Y-42733D01*
X15582Y-42581D01*
X15582Y-42391D01*
X15620Y-42238D01*
X15659Y-42162D01*
X15697Y-42124D01*
X15773Y-42086D01*
X16344Y-42162D02*
X16382Y-42124D01*
X16459Y-42086D01*
X16649Y-42086D01*
X16725Y-42124D01*
X16763Y-42162D01*
X16802Y-42238D01*
X16802Y-42314D01*
X16763Y-42429D01*
X16306Y-42886D01*
X16802Y-42886D01*
X17144Y-42886D02*
X17144Y-42352D01*
X17144Y-42429D02*
X17183Y-42391D01*
X17259Y-42352D01*
X17373Y-42352D01*
X17449Y-42391D01*
X17487Y-42467D01*
X17487Y-42886D01*
X17487Y-42467D02*
X17525Y-42391D01*
X17602Y-42352D01*
X17716Y-42352D01*
X17792Y-42391D01*
X17830Y-42467D01*
X17830Y-42886D01*
X18211Y-42886D02*
X18211Y-42352D01*
X18211Y-42429D02*
X18250Y-42391D01*
X18326Y-42352D01*
X18440Y-42352D01*
X18516Y-42391D01*
X18554Y-42467D01*
X18554Y-42886D01*
X18554Y-42467D02*
X18592Y-42391D01*
X18669Y-42352D01*
X18783Y-42352D01*
X18859Y-42391D01*
X18897Y-42467D01*
X18897Y-42886D01*
X20460Y-42048D02*
X19774Y-43076D01*
X21489Y-42086D02*
X21565Y-42086D01*
X21641Y-42124D01*
X21679Y-42162D01*
X21717Y-42238D01*
X21756Y-42391D01*
X21756Y-42581D01*
X21717Y-42733D01*
X21679Y-42810D01*
X21641Y-42848D01*
X21565Y-42886D01*
X21489Y-42886D01*
X21413Y-42848D01*
X21375Y-42810D01*
X21336Y-42733D01*
X21298Y-42581D01*
X21298Y-42391D01*
X21336Y-42238D01*
X21375Y-42162D01*
X21413Y-42124D01*
X21489Y-42086D01*
X22098Y-42810D02*
X22137Y-42848D01*
X22098Y-42886D01*
X22060Y-42848D01*
X22098Y-42810D01*
X22098Y-42886D01*
X22632Y-42086D02*
X22708Y-42086D01*
X22784Y-42124D01*
X22822Y-42162D01*
X22860Y-42238D01*
X22899Y-42391D01*
X22899Y-42581D01*
X22860Y-42733D01*
X22822Y-42810D01*
X22784Y-42848D01*
X22708Y-42886D01*
X22632Y-42886D01*
X22556Y-42848D01*
X22518Y-42810D01*
X22479Y-42733D01*
X22441Y-42581D01*
X22441Y-42391D01*
X22479Y-42238D01*
X22518Y-42162D01*
X22556Y-42124D01*
X22632Y-42086D01*
X23584Y-42352D02*
X23584Y-42886D01*
X23394Y-42048D02*
X23203Y-42619D01*
X23699Y-42619D01*
X24156Y-42086D02*
X24232Y-42086D01*
X24308Y-42124D01*
X24346Y-42162D01*
X24384Y-42238D01*
X24423Y-42391D01*
X24423Y-42581D01*
X24384Y-42733D01*
X24346Y-42810D01*
X24308Y-42848D01*
X24232Y-42886D01*
X24156Y-42886D01*
X24080Y-42848D01*
X24042Y-42810D01*
X24003Y-42733D01*
X23965Y-42581D01*
X23965Y-42391D01*
X24003Y-42238D01*
X24042Y-42162D01*
X24080Y-42124D01*
X24156Y-42086D01*
X24727Y-42086D02*
X24727Y-42238D01*
X25032Y-42086D02*
X25032Y-42238D01*
X26214Y-43191D02*
X26176Y-43152D01*
X26100Y-43038D01*
X26062Y-42962D01*
X26024Y-42848D01*
X25985Y-42657D01*
X25985Y-42505D01*
X26024Y-42314D01*
X26062Y-42200D01*
X26100Y-42124D01*
X26176Y-42010D01*
X26214Y-41972D01*
X26442Y-42086D02*
X26938Y-42086D01*
X26671Y-42391D01*
X26785Y-42391D01*
X26861Y-42429D01*
X26899Y-42467D01*
X26938Y-42543D01*
X26938Y-42733D01*
X26899Y-42810D01*
X26861Y-42848D01*
X26785Y-42886D01*
X26557Y-42886D01*
X26480Y-42848D01*
X26442Y-42810D01*
X27204Y-42086D02*
X27738Y-42086D01*
X27395Y-42886D01*
X28652Y-42886D02*
X28652Y-42086D01*
X28995Y-42886D02*
X28995Y-42467D01*
X28957Y-42391D01*
X28881Y-42352D01*
X28767Y-42352D01*
X28691Y-42391D01*
X28652Y-42429D01*
X29491Y-42886D02*
X29415Y-42848D01*
X29376Y-42810D01*
X29338Y-42733D01*
X29338Y-42505D01*
X29376Y-42429D01*
X29415Y-42391D01*
X29491Y-42352D01*
X29605Y-42352D01*
X29681Y-42391D01*
X29719Y-42429D01*
X29757Y-42505D01*
X29757Y-42733D01*
X29719Y-42810D01*
X29681Y-42848D01*
X29605Y-42886D01*
X29491Y-42886D01*
X30215Y-42886D02*
X30139Y-42848D01*
X30100Y-42772D01*
X30100Y-42086D01*
X30824Y-42848D02*
X30748Y-42886D01*
X30596Y-42886D01*
X30519Y-42848D01*
X30481Y-42772D01*
X30481Y-42467D01*
X30519Y-42391D01*
X30596Y-42352D01*
X30748Y-42352D01*
X30824Y-42391D01*
X30862Y-42467D01*
X30862Y-42543D01*
X30481Y-42619D01*
X31167Y-42848D02*
X31244Y-42886D01*
X31396Y-42886D01*
X31472Y-42848D01*
X31510Y-42772D01*
X31510Y-42733D01*
X31472Y-42657D01*
X31396Y-42619D01*
X31282Y-42619D01*
X31205Y-42581D01*
X31167Y-42505D01*
X31167Y-42467D01*
X31205Y-42391D01*
X31282Y-42352D01*
X31396Y-42352D01*
X31472Y-42391D01*
X31777Y-43191D02*
X31815Y-43152D01*
X31892Y-43038D01*
X31930Y-42962D01*
X31968Y-42848D01*
X32006Y-42657D01*
X32006Y-42505D01*
X31968Y-42314D01*
X31930Y-42200D01*
X31892Y-42124D01*
X31815Y-42010D01*
X31777Y-41972D01*
G54D10*
X14087Y-43618D02*
X14078Y-43706D01*
X14052Y-43791D01*
X14010Y-43869D01*
X13954Y-43938D01*
X13886Y-43995D01*
X13808Y-44037D01*
X13723Y-44063D01*
X13635Y-44072D01*
X13547Y-44064D01*
X13462Y-44039D01*
X13383Y-43998D01*
X13314Y-43943D01*
X13257Y-43875D01*
X13214Y-43797D01*
X13187Y-43712D01*
X13178Y-43624D01*
X13185Y-43536D01*
X13209Y-43451D01*
X13250Y-43372D01*
X13305Y-43302D01*
X13373Y-43245D01*
X13450Y-43202D01*
X13535Y-43174D01*
X13623Y-43164D01*
X13711Y-43170D01*
X13796Y-43194D01*
X13875Y-43234D01*
X13945Y-43289D01*
X14003Y-43356D01*
X14047Y-43433D01*
X14075Y-43518D01*
X14086Y-43606D01*
X14087Y-43618D01*
G54D11*
X14439Y-43218D02*
X14477Y-43180D01*
X14554Y-43142D01*
X14744Y-43142D01*
X14820Y-43180D01*
X14858Y-43218D01*
X14897Y-43294D01*
X14897Y-43370D01*
X14858Y-43485D01*
X14401Y-43942D01*
X14897Y-43942D01*
X15239Y-43866D02*
X15278Y-43904D01*
X15239Y-43942D01*
X15201Y-43904D01*
X15239Y-43866D01*
X15239Y-43942D01*
X15544Y-43142D02*
X16040Y-43142D01*
X15773Y-43447D01*
X15887Y-43447D01*
X15963Y-43485D01*
X16001Y-43523D01*
X16040Y-43599D01*
X16040Y-43789D01*
X16001Y-43866D01*
X15963Y-43904D01*
X15887Y-43942D01*
X15659Y-43942D01*
X15582Y-43904D01*
X15544Y-43866D01*
X16802Y-43942D02*
X16344Y-43942D01*
X16573Y-43942D02*
X16573Y-43142D01*
X16497Y-43256D01*
X16421Y-43332D01*
X16344Y-43370D01*
X17144Y-43942D02*
X17144Y-43408D01*
X17144Y-43485D02*
X17183Y-43447D01*
X17259Y-43408D01*
X17373Y-43408D01*
X17449Y-43447D01*
X17487Y-43523D01*
X17487Y-43942D01*
X17487Y-43523D02*
X17525Y-43447D01*
X17602Y-43408D01*
X17716Y-43408D01*
X17792Y-43447D01*
X17830Y-43523D01*
X17830Y-43942D01*
X18211Y-43942D02*
X18211Y-43408D01*
X18211Y-43485D02*
X18250Y-43447D01*
X18326Y-43408D01*
X18440Y-43408D01*
X18516Y-43447D01*
X18554Y-43523D01*
X18554Y-43942D01*
X18554Y-43523D02*
X18592Y-43447D01*
X18669Y-43408D01*
X18783Y-43408D01*
X18859Y-43447D01*
X18897Y-43523D01*
X18897Y-43942D01*
X20460Y-43104D02*
X19774Y-44132D01*
X21489Y-43142D02*
X21565Y-43142D01*
X21641Y-43180D01*
X21679Y-43218D01*
X21717Y-43294D01*
X21756Y-43447D01*
X21756Y-43637D01*
X21717Y-43789D01*
X21679Y-43866D01*
X21641Y-43904D01*
X21565Y-43942D01*
X21489Y-43942D01*
X21413Y-43904D01*
X21375Y-43866D01*
X21336Y-43789D01*
X21298Y-43637D01*
X21298Y-43447D01*
X21336Y-43294D01*
X21375Y-43218D01*
X21413Y-43180D01*
X21489Y-43142D01*
X22098Y-43866D02*
X22137Y-43904D01*
X22098Y-43942D01*
X22060Y-43904D01*
X22098Y-43866D01*
X22098Y-43942D01*
X22632Y-43142D02*
X22708Y-43142D01*
X22784Y-43180D01*
X22822Y-43218D01*
X22860Y-43294D01*
X22899Y-43447D01*
X22899Y-43637D01*
X22860Y-43789D01*
X22822Y-43866D01*
X22784Y-43904D01*
X22708Y-43942D01*
X22632Y-43942D01*
X22556Y-43904D01*
X22518Y-43866D01*
X22479Y-43789D01*
X22441Y-43637D01*
X22441Y-43447D01*
X22479Y-43294D01*
X22518Y-43218D01*
X22556Y-43180D01*
X22632Y-43142D01*
X23280Y-43942D02*
X23432Y-43942D01*
X23508Y-43904D01*
X23546Y-43866D01*
X23622Y-43751D01*
X23661Y-43599D01*
X23661Y-43294D01*
X23622Y-43218D01*
X23584Y-43180D01*
X23508Y-43142D01*
X23356Y-43142D01*
X23280Y-43180D01*
X23241Y-43218D01*
X23203Y-43294D01*
X23203Y-43485D01*
X23241Y-43561D01*
X23280Y-43599D01*
X23356Y-43637D01*
X23508Y-43637D01*
X23584Y-43599D01*
X23622Y-43561D01*
X23661Y-43485D01*
X24423Y-43942D02*
X23965Y-43942D01*
X24194Y-43942D02*
X24194Y-43142D01*
X24118Y-43256D01*
X24042Y-43332D01*
X23965Y-43370D01*
X24727Y-43142D02*
X24727Y-43294D01*
X25032Y-43142D02*
X25032Y-43294D01*
X26214Y-44247D02*
X26176Y-44208D01*
X26100Y-44094D01*
X26062Y-44018D01*
X26024Y-43904D01*
X25985Y-43713D01*
X25985Y-43561D01*
X26024Y-43370D01*
X26062Y-43256D01*
X26100Y-43180D01*
X26176Y-43066D01*
X26214Y-43028D01*
X26480Y-43218D02*
X26518Y-43180D01*
X26595Y-43142D01*
X26785Y-43142D01*
X26861Y-43180D01*
X26899Y-43218D01*
X26938Y-43294D01*
X26938Y-43370D01*
X26899Y-43485D01*
X26442Y-43942D01*
X26938Y-43942D01*
X27890Y-43942D02*
X27890Y-43142D01*
X28233Y-43942D02*
X28233Y-43523D01*
X28195Y-43447D01*
X28119Y-43408D01*
X28005Y-43408D01*
X27929Y-43447D01*
X27890Y-43485D01*
X28729Y-43942D02*
X28653Y-43904D01*
X28614Y-43866D01*
X28576Y-43789D01*
X28576Y-43561D01*
X28614Y-43485D01*
X28653Y-43447D01*
X28729Y-43408D01*
X28843Y-43408D01*
X28919Y-43447D01*
X28957Y-43485D01*
X28995Y-43561D01*
X28995Y-43789D01*
X28957Y-43866D01*
X28919Y-43904D01*
X28843Y-43942D01*
X28729Y-43942D01*
X29453Y-43942D02*
X29377Y-43904D01*
X29338Y-43828D01*
X29338Y-43142D01*
X30062Y-43904D02*
X29986Y-43942D01*
X29834Y-43942D01*
X29757Y-43904D01*
X29719Y-43828D01*
X29719Y-43523D01*
X29757Y-43447D01*
X29834Y-43408D01*
X29986Y-43408D01*
X30062Y-43447D01*
X30100Y-43523D01*
X30100Y-43599D01*
X29719Y-43675D01*
X30405Y-43904D02*
X30482Y-43942D01*
X30634Y-43942D01*
X30710Y-43904D01*
X30748Y-43828D01*
X30748Y-43789D01*
X30710Y-43713D01*
X30634Y-43675D01*
X30520Y-43675D01*
X30443Y-43637D01*
X30405Y-43561D01*
X30405Y-43523D01*
X30443Y-43447D01*
X30520Y-43408D01*
X30634Y-43408D01*
X30710Y-43447D01*
X31015Y-44247D02*
X31053Y-44208D01*
X31130Y-44094D01*
X31168Y-44018D01*
X31206Y-43904D01*
X31244Y-43713D01*
X31244Y-43561D01*
X31206Y-43370D01*
X31168Y-43256D01*
X31130Y-43180D01*
X31053Y-43066D01*
X31015Y-43028D01*
X13201Y-43923D02*
X13201Y-45693D01*
X14086Y-44808D02*
X12316Y-44808D01*
X14820Y-44598D02*
X14820Y-45132D01*
X14630Y-44294D02*
X14439Y-44865D01*
X14935Y-44865D01*
X15239Y-45056D02*
X15278Y-45094D01*
X15239Y-45132D01*
X15201Y-45094D01*
X15239Y-45056D01*
X15239Y-45132D01*
X16001Y-44332D02*
X15620Y-44332D01*
X15582Y-44713D01*
X15620Y-44675D01*
X15697Y-44637D01*
X15887Y-44637D01*
X15963Y-44675D01*
X16001Y-44713D01*
X16040Y-44789D01*
X16040Y-44979D01*
X16001Y-45056D01*
X15963Y-45094D01*
X15887Y-45132D01*
X15697Y-45132D01*
X15620Y-45094D01*
X15582Y-45056D01*
X16535Y-44332D02*
X16611Y-44332D01*
X16687Y-44370D01*
X16725Y-44408D01*
X16763Y-44484D01*
X16802Y-44637D01*
X16802Y-44827D01*
X16763Y-44979D01*
X16725Y-45056D01*
X16687Y-45094D01*
X16611Y-45132D01*
X16535Y-45132D01*
X16459Y-45094D01*
X16421Y-45056D01*
X16382Y-44979D01*
X16344Y-44827D01*
X16344Y-44637D01*
X16382Y-44484D01*
X16421Y-44408D01*
X16459Y-44370D01*
X16535Y-44332D01*
X17144Y-45132D02*
X17144Y-44598D01*
X17144Y-44675D02*
X17183Y-44637D01*
X17259Y-44598D01*
X17373Y-44598D01*
X17449Y-44637D01*
X17487Y-44713D01*
X17487Y-45132D01*
X17487Y-44713D02*
X17525Y-44637D01*
X17602Y-44598D01*
X17716Y-44598D01*
X17792Y-44637D01*
X17830Y-44713D01*
X17830Y-45132D01*
X18211Y-45132D02*
X18211Y-44598D01*
X18211Y-44675D02*
X18250Y-44637D01*
X18326Y-44598D01*
X18440Y-44598D01*
X18516Y-44637D01*
X18554Y-44713D01*
X18554Y-45132D01*
X18554Y-44713D02*
X18592Y-44637D01*
X18669Y-44598D01*
X18783Y-44598D01*
X18859Y-44637D01*
X18897Y-44713D01*
X18897Y-45132D01*
X20460Y-44294D02*
X19774Y-45322D01*
X21489Y-44332D02*
X21565Y-44332D01*
X21641Y-44370D01*
X21679Y-44408D01*
X21717Y-44484D01*
X21756Y-44637D01*
X21756Y-44827D01*
X21717Y-44979D01*
X21679Y-45056D01*
X21641Y-45094D01*
X21565Y-45132D01*
X21489Y-45132D01*
X21413Y-45094D01*
X21375Y-45056D01*
X21336Y-44979D01*
X21298Y-44827D01*
X21298Y-44637D01*
X21336Y-44484D01*
X21375Y-44408D01*
X21413Y-44370D01*
X21489Y-44332D01*
X22098Y-45056D02*
X22137Y-45094D01*
X22098Y-45132D01*
X22060Y-45094D01*
X22098Y-45056D01*
X22098Y-45132D01*
X22899Y-45132D02*
X22441Y-45132D01*
X22670Y-45132D02*
X22670Y-44332D01*
X22594Y-44446D01*
X22518Y-44522D01*
X22441Y-44560D01*
X23165Y-44332D02*
X23699Y-44332D01*
X23356Y-45132D01*
X23927Y-44332D02*
X24461Y-44332D01*
X24118Y-45132D01*
X24727Y-44332D02*
X24727Y-44484D01*
X25032Y-44332D02*
X25032Y-44484D01*
X26214Y-45437D02*
X26176Y-45398D01*
X26100Y-45284D01*
X26062Y-45208D01*
X26024Y-45094D01*
X25985Y-44903D01*
X25985Y-44751D01*
X26024Y-44560D01*
X26062Y-44446D01*
X26100Y-44370D01*
X26176Y-44256D01*
X26214Y-44218D01*
X26861Y-44598D02*
X26861Y-45132D01*
X26671Y-44294D02*
X26480Y-44865D01*
X26976Y-44865D01*
X27890Y-45132D02*
X27890Y-44332D01*
X28233Y-45132D02*
X28233Y-44713D01*
X28195Y-44637D01*
X28119Y-44598D01*
X28005Y-44598D01*
X27929Y-44637D01*
X27890Y-44675D01*
X28729Y-45132D02*
X28653Y-45094D01*
X28614Y-45056D01*
X28576Y-44979D01*
X28576Y-44751D01*
X28614Y-44675D01*
X28653Y-44637D01*
X28729Y-44598D01*
X28843Y-44598D01*
X28919Y-44637D01*
X28957Y-44675D01*
X28995Y-44751D01*
X28995Y-44979D01*
X28957Y-45056D01*
X28919Y-45094D01*
X28843Y-45132D01*
X28729Y-45132D01*
X29453Y-45132D02*
X29377Y-45094D01*
X29338Y-45018D01*
X29338Y-44332D01*
X30062Y-45094D02*
X29986Y-45132D01*
X29834Y-45132D01*
X29757Y-45094D01*
X29719Y-45018D01*
X29719Y-44713D01*
X29757Y-44637D01*
X29834Y-44598D01*
X29986Y-44598D01*
X30062Y-44637D01*
X30100Y-44713D01*
X30100Y-44789D01*
X29719Y-44865D01*
X30405Y-45094D02*
X30482Y-45132D01*
X30634Y-45132D01*
X30710Y-45094D01*
X30748Y-45018D01*
X30748Y-44979D01*
X30710Y-44903D01*
X30634Y-44865D01*
X30520Y-44865D01*
X30443Y-44827D01*
X30405Y-44751D01*
X30405Y-44713D01*
X30443Y-44637D01*
X30520Y-44598D01*
X30634Y-44598D01*
X30710Y-44637D01*
X31015Y-45437D02*
X31053Y-45398D01*
X31130Y-45284D01*
X31168Y-45208D01*
X31206Y-45094D01*
X31244Y-44903D01*
X31244Y-44751D01*
X31206Y-44560D01*
X31168Y-44446D01*
X31130Y-44370D01*
X31053Y-44256D01*
X31015Y-44218D01*
M02*
