M48
;DRILL file {PCBnew (2010-08-29 BZR 2466)-unstable} date Mi 01 Sep 2010 23:33:07 CEST
;FORMAT={-.-/ absolute / metric / decimal}
R,T
VER,1
FMAT,2
METRIC,TZ
TCST,OFF
ICI,OFF
ATC,ON
T1C1.016
T2C2.311
T3C4.498
%
M47
G05
M71
T1
X37.846Y-56.261
X37.973Y-64.008
X39.243Y-53.721
X40.386Y-56.261
X40.513Y-64.008
X42.926Y-55.880
X43.688Y-94.615
X44.069Y-64.008
X46.482Y-87.757
X57.023Y-51.689
X58.547Y-96.647
X59.055Y-93.218
X63.754Y-91.059
X66.675Y-90.551
X68.326Y-49.530
X68.326Y-88.138
X70.231Y-86.106
X73.660Y-81.661
X74.803Y-82.931
X76.073Y-51.181
X77.851Y-82.296
X80.518Y-60.706
X81.153Y-53.848
X82.931Y-88.900
X83.312Y-94.361
X83.439Y-86.614
X86.487Y-74.803
X88.011Y-70.104
X88.392Y-73.533
X91.059Y-72.263
X92.329Y-69.977
X93.599Y-72.263
X99.949Y-53.594
X100.838Y-51.943
X101.219Y-91.059
X101.854Y-66.040
X106.172Y-72.644
T2
X105.791Y-51.473
X105.791Y-64.605
T3
X40.000Y-47.000
X40.000Y-95.001
X108.001Y-47.000
X108.001Y-95.001
T0
M30
