<?xml version="1.0" standalone="no"?>
<!DOCTYPE svg PUBLIC "-//W3C//DTD SVG 1.1//EN" 
"http://www.w3.org/Graphics/SVG/1.1/DTD/svg11.dtd"> 
<svg
  xmlns="http://www.w3.org/2000/svg"
  version="1.1"
  width="11.7in" height="8.267in" viewBox="0 0 117000 82670 "
>
  <title>SVG Picture created as mainboard-Platinenumrisse.svg </title>
  <desc>Picture generated by wxSVG v0101 </desc>
  <g style="fill:black; stroke:black; stroke-width:1">
</g>
<g style="fill:#000000; fill-opacity:0.0; 
  stroke:#0000C0; stroke-linecap:round; stroke-linejoin:round; stroke-opacity:1.0; stroke-opacity:1.0; stroke-width:0" 
   transform="translate(0 0) scale(1 1)">
<path d="M53393 23622 L53397 23622" /> 
<path d="M53395 23620 L53395 23624" /> 
</g>
<g style="fill:#FFFF00; fill-opacity:0.0; 
  stroke:#FFFF00; stroke-linecap:round; stroke-linejoin:round; stroke-opacity:1.0; stroke-opacity:1.0; stroke-width:120" 
   transform="translate(0 0) scale(1 1)">
<path d="M53871 21109 L53871 21509" /> 
<path d="M53871 21509 L53071 21252" /> 
<g style = "stroke-linecap:round;" > 
<path d="M53071 21252 L53071 21252" /> 
</g></g>
<g style="fill:#FFFF00; fill-opacity:0.0; 
  stroke:#FFFF00; stroke-linecap:round; stroke-linejoin:round; stroke-opacity:1.0; stroke-opacity:1.0; stroke-width:120" 
   transform="translate(0 0) scale(1 1)">
<path d="M53871 21851 L53871 21908" /> 
<path d="M53871 21908 L53833 21965" /> 
<path d="M53833 21965 L53795 21994" /> 
<path d="M53795 21994 L53719 22023" /> 
<path d="M53719 22023 L53566 22051" /> 
<path d="M53566 22051 L53376 22051" /> 
<path d="M53376 22051 L53224 22023" /> 
<path d="M53224 22023 L53147 21994" /> 
<path d="M53147 21994 L53109 21965" /> 
<path d="M53109 21965 L53071 21908" /> 
<path d="M53071 21908 L53071 21851" /> 
<path d="M53071 21851 L53109 21794" /> 
<path d="M53109 21794 L53147 21765" /> 
<path d="M53147 21765 L53224 21737" /> 
<path d="M53224 21737 L53376 21708" /> 
<path d="M53376 21708 L53566 21708" /> 
<path d="M53566 21708 L53719 21737" /> 
<path d="M53719 21737 L53795 21765" /> 
<path d="M53795 21765 L53833 21794" /> 
<path d="M53833 21794 L53871 21851" /> 
</g>
<g style="fill:#FFFF00; fill-opacity:0.0; 
  stroke:#FFFF00; stroke-linecap:round; stroke-linejoin:round; stroke-opacity:1.0; stroke-opacity:1.0; stroke-width:120" 
   transform="translate(0 0) scale(1 1)">
<path d="M53109 22336 L53071 22336" /> 
<path d="M53071 22336 L52995 22308" /> 
<path d="M52995 22308 L52957 22279" /> 
<g style = "stroke-linecap:round;" > 
<path d="M52957 22279 L52957 22279" /> 
</g></g>
<g style="fill:#FFFF00; fill-opacity:0.0; 
  stroke:#FFFF00; stroke-linecap:round; stroke-linejoin:round; stroke-opacity:1.0; stroke-opacity:1.0; stroke-width:120" 
   transform="translate(0 0) scale(1 1)">
<path d="M53871 22708 L53871 22765" /> 
<path d="M53871 22765 L53833 22822" /> 
<path d="M53833 22822 L53795 22851" /> 
<path d="M53795 22851 L53719 22880" /> 
<path d="M53719 22880 L53566 22908" /> 
<path d="M53566 22908 L53376 22908" /> 
<path d="M53376 22908 L53224 22880" /> 
<path d="M53224 22880 L53147 22851" /> 
<path d="M53147 22851 L53109 22822" /> 
<path d="M53109 22822 L53071 22765" /> 
<path d="M53071 22765 L53071 22708" /> 
<path d="M53071 22708 L53109 22651" /> 
<path d="M53109 22651 L53147 22622" /> 
<path d="M53147 22622 L53224 22594" /> 
<path d="M53224 22594 L53376 22565" /> 
<path d="M53376 22565 L53566 22565" /> 
<path d="M53566 22565 L53719 22594" /> 
<path d="M53719 22594 L53795 22622" /> 
<path d="M53795 22622 L53833 22651" /> 
<path d="M53833 22651 L53871 22708" /> 
</g>
<g style="fill:#FFFF00; fill-opacity:0.0; 
  stroke:#FFFF00; stroke-linecap:round; stroke-linejoin:round; stroke-opacity:1.0; stroke-opacity:1.0; stroke-width:120" 
   transform="translate(0 0) scale(1 1)">
<path d="M53871 23279 L53871 23336" /> 
<path d="M53871 23336 L53833 23393" /> 
<path d="M53833 23393 L53795 23422" /> 
<path d="M53795 23422 L53719 23451" /> 
<path d="M53719 23451 L53566 23479" /> 
<path d="M53566 23479 L53376 23479" /> 
<path d="M53376 23479 L53224 23451" /> 
<path d="M53224 23451 L53147 23422" /> 
<path d="M53147 23422 L53109 23393" /> 
<path d="M53109 23393 L53071 23336" /> 
<path d="M53071 23336 L53071 23279" /> 
<path d="M53071 23279 L53109 23222" /> 
<path d="M53109 23222 L53147 23193" /> 
<path d="M53147 23193 L53224 23165" /> 
<path d="M53224 23165 L53376 23136" /> 
<path d="M53376 23136 L53566 23136" /> 
<path d="M53566 23136 L53719 23165" /> 
<path d="M53719 23165 L53795 23193" /> 
<path d="M53795 23193 L53833 23222" /> 
<path d="M53833 23222 L53871 23279" /> 
</g>
<g style="fill:#FFFF00; fill-opacity:0.0; 
  stroke:#FFFF00; stroke-linecap:round; stroke-linejoin:round; stroke-opacity:1.0; stroke-opacity:1.0; stroke-width:120" 
   transform="translate(0 0) scale(1 1)">
<path d="M53871 23850 L53871 23907" /> 
<path d="M53871 23907 L53833 23964" /> 
<path d="M53833 23964 L53795 23993" /> 
<path d="M53795 23993 L53719 24022" /> 
<path d="M53719 24022 L53566 24050" /> 
<path d="M53566 24050 L53376 24050" /> 
<path d="M53376 24050 L53224 24022" /> 
<path d="M53224 24022 L53147 23993" /> 
<path d="M53147 23993 L53109 23964" /> 
<path d="M53109 23964 L53071 23907" /> 
<path d="M53071 23907 L53071 23850" /> 
<path d="M53071 23850 L53109 23793" /> 
<path d="M53109 23793 L53147 23764" /> 
<path d="M53147 23764 L53224 23736" /> 
<path d="M53224 23736 L53376 23707" /> 
<path d="M53376 23707 L53566 23707" /> 
<path d="M53566 23707 L53719 23736" /> 
<path d="M53719 23736 L53795 23764" /> 
<path d="M53795 23764 L53833 23793" /> 
<path d="M53833 23793 L53871 23850" /> 
</g>
<g style="fill:#FFFF00; fill-opacity:0.0; 
  stroke:#FFFF00; stroke-linecap:round; stroke-linejoin:round; stroke-opacity:1.0; stroke-opacity:1.0; stroke-width:120" 
   transform="translate(0 0) scale(1 1)">
<path d="M53071 24764 L53605 24764" /> 
<g style = "stroke-linecap:round;" > 
<path d="M53605 24764 L53605 24764" /> 
</g></g>
<g style="fill:#FFFF00; fill-opacity:0.0; 
  stroke:#FFFF00; stroke-linecap:round; stroke-linejoin:round; stroke-opacity:1.0; stroke-opacity:1.0; stroke-width:120" 
   transform="translate(0 0) scale(1 1)">
<path d="M53528 24764 L53566 24792" /> 
<path d="M53566 24792 L53605 24850" /> 
<path d="M53605 24850 L53605 24935" /> 
<path d="M53605 24935 L53566 24992" /> 
<path d="M53566 24992 L53490 25021" /> 
<path d="M53490 25021 L53071 25021" /> 
<g style = "stroke-linecap:round;" > 
<path d="M53071 25021 L53071 25021" /> 
</g></g>
<g style="fill:#FFFF00; fill-opacity:0.0; 
  stroke:#FFFF00; stroke-linecap:round; stroke-linejoin:round; stroke-opacity:1.0; stroke-opacity:1.0; stroke-width:120" 
   transform="translate(0 0) scale(1 1)">
<path d="M53490 25021 L53566 25050" /> 
<path d="M53566 25050 L53605 25107" /> 
<path d="M53605 25107 L53605 25192" /> 
<path d="M53605 25192 L53566 25250" /> 
<path d="M53566 25250 L53490 25278" /> 
<path d="M53490 25278 L53071 25278" /> 
<g style = "stroke-linecap:round;" > 
<path d="M53071 25278 L53071 25278" /> 
</g></g>
<g style="fill:#FFFF00; fill-opacity:0.0; 
  stroke:#FFFF00; stroke-linecap:round; stroke-linejoin:round; stroke-opacity:1.0; stroke-opacity:1.0; stroke-width:120" 
   transform="translate(0 0) scale(1 1)">
<path d="M53071 25564 L53605 25564" /> 
<g style = "stroke-linecap:round;" > 
<path d="M53605 25564 L53605 25564" /> 
</g></g>
<g style="fill:#FFFF00; fill-opacity:0.0; 
  stroke:#FFFF00; stroke-linecap:round; stroke-linejoin:round; stroke-opacity:1.0; stroke-opacity:1.0; stroke-width:120" 
   transform="translate(0 0) scale(1 1)">
<path d="M53528 25564 L53566 25592" /> 
<path d="M53566 25592 L53605 25650" /> 
<path d="M53605 25650 L53605 25735" /> 
<path d="M53605 25735 L53566 25792" /> 
<path d="M53566 25792 L53490 25821" /> 
<path d="M53490 25821 L53071 25821" /> 
<g style = "stroke-linecap:round;" > 
<path d="M53071 25821 L53071 25821" /> 
</g></g>
<g style="fill:#FFFF00; fill-opacity:0.0; 
  stroke:#FFFF00; stroke-linecap:round; stroke-linejoin:round; stroke-opacity:1.0; stroke-opacity:1.0; stroke-width:120" 
   transform="translate(0 0) scale(1 1)">
<path d="M53490 25821 L53566 25850" /> 
<path d="M53566 25850 L53605 25907" /> 
<path d="M53605 25907 L53605 25992" /> 
<path d="M53605 25992 L53566 26050" /> 
<path d="M53566 26050 L53490 26078" /> 
<path d="M53490 26078 L53071 26078" /> 
<g style = "stroke-linecap:round;" > 
<path d="M53071 26078 L53071 26078" /> 
</g><path d="M52755 9843 L52755 37402" /> 
<path d="M51181 9843 L54035 9843" /> 
<path d="M51181 37402 L54035 37402" /> 
<path d="M52525 36959 L52755 37402" /> 
<path d="M52755 37402 L52985 36959" /> 
<path d="M52525 10286 L52755 9843" /> 
<path d="M52755 9843 L52985 10286" /> 
</g>
<g style="fill:#FFFF00; fill-opacity:0.0; 
  stroke:#0000C0; stroke-linecap:round; stroke-linejoin:round; stroke-opacity:1.0; stroke-opacity:1.0; stroke-width:0" 
   transform="translate(0 0) scale(1 1)">
<path d="M29526 41585 L29530 41585" /> 
<path d="M29528 41583 L29528 41587" /> 
</g>
<g style="fill:#FFFF00; fill-opacity:0.0; 
  stroke:#FFFF00; stroke-linecap:round; stroke-linejoin:round; stroke-opacity:1.0; stroke-opacity:1.0; stroke-width:120" 
   transform="translate(0 0) scale(1 1)">
<path d="M27101 41909 L26758 41909" /> 
<g style = "stroke-linecap:round;" > 
<path d="M26758 41909 L26758 41909" /> 
</g></g>
<g style="fill:#FFFF00; fill-opacity:0.0; 
  stroke:#FFFF00; stroke-linecap:round; stroke-linejoin:round; stroke-opacity:1.0; stroke-opacity:1.0; stroke-width:120" 
   transform="translate(0 0) scale(1 1)">
<path d="M26930 41909 L26930 41109" /> 
<path d="M26930 41109 L26873 41223" /> 
<path d="M26873 41223 L26815 41299" /> 
<path d="M26815 41299 L26758 41337" /> 
<g style = "stroke-linecap:round;" > 
<path d="M26758 41337 L26758 41337" /> 
</g></g>
<g style="fill:#FFFF00; fill-opacity:0.0; 
  stroke:#FFFF00; stroke-linecap:round; stroke-linejoin:round; stroke-opacity:1.0; stroke-opacity:1.0; stroke-width:120" 
   transform="translate(0 0) scale(1 1)">
<path d="M27472 41109 L27529 41109" /> 
<path d="M27529 41109 L27586 41147" /> 
<path d="M27586 41147 L27615 41185" /> 
<path d="M27615 41185 L27644 41261" /> 
<path d="M27644 41261 L27672 41414" /> 
<path d="M27672 41414 L27672 41604" /> 
<path d="M27672 41604 L27644 41756" /> 
<path d="M27644 41756 L27615 41833" /> 
<path d="M27615 41833 L27586 41871" /> 
<path d="M27586 41871 L27529 41909" /> 
<path d="M27529 41909 L27472 41909" /> 
<path d="M27472 41909 L27415 41871" /> 
<path d="M27415 41871 L27386 41833" /> 
<path d="M27386 41833 L27358 41756" /> 
<path d="M27358 41756 L27329 41604" /> 
<path d="M27329 41604 L27329 41414" /> 
<path d="M27329 41414 L27358 41261" /> 
<path d="M27358 41261 L27386 41185" /> 
<path d="M27386 41185 L27415 41147" /> 
<path d="M27415 41147 L27472 41109" /> 
</g>
<g style="fill:#FFFF00; fill-opacity:0.0; 
  stroke:#FFFF00; stroke-linecap:round; stroke-linejoin:round; stroke-opacity:1.0; stroke-opacity:1.0; stroke-width:120" 
   transform="translate(0 0) scale(1 1)">
<path d="M28043 41109 L28100 41109" /> 
<path d="M28100 41109 L28157 41147" /> 
<path d="M28157 41147 L28186 41185" /> 
<path d="M28186 41185 L28215 41261" /> 
<path d="M28215 41261 L28243 41414" /> 
<path d="M28243 41414 L28243 41604" /> 
<path d="M28243 41604 L28215 41756" /> 
<path d="M28215 41756 L28186 41833" /> 
<path d="M28186 41833 L28157 41871" /> 
<path d="M28157 41871 L28100 41909" /> 
<path d="M28100 41909 L28043 41909" /> 
<path d="M28043 41909 L27986 41871" /> 
<path d="M27986 41871 L27957 41833" /> 
<path d="M27957 41833 L27929 41756" /> 
<path d="M27929 41756 L27900 41604" /> 
<path d="M27900 41604 L27900 41414" /> 
<path d="M27900 41414 L27929 41261" /> 
<path d="M27929 41261 L27957 41185" /> 
<path d="M27957 41185 L27986 41147" /> 
<path d="M27986 41147 L28043 41109" /> 
</g>
<g style="fill:#FFFF00; fill-opacity:0.0; 
  stroke:#FFFF00; stroke-linecap:round; stroke-linejoin:round; stroke-opacity:1.0; stroke-opacity:1.0; stroke-width:120" 
   transform="translate(0 0) scale(1 1)">
<path d="M28528 41871 L28528 41909" /> 
<path d="M28528 41909 L28500 41985" /> 
<path d="M28500 41985 L28471 42023" /> 
<g style = "stroke-linecap:round;" > 
<path d="M28471 42023 L28471 42023" /> 
</g></g>
<g style="fill:#FFFF00; fill-opacity:0.0; 
  stroke:#FFFF00; stroke-linecap:round; stroke-linejoin:round; stroke-opacity:1.0; stroke-opacity:1.0; stroke-width:120" 
   transform="translate(0 0) scale(1 1)">
<path d="M28900 41109 L28957 41109" /> 
<path d="M28957 41109 L29014 41147" /> 
<path d="M29014 41147 L29043 41185" /> 
<path d="M29043 41185 L29072 41261" /> 
<path d="M29072 41261 L29100 41414" /> 
<path d="M29100 41414 L29100 41604" /> 
<path d="M29100 41604 L29072 41756" /> 
<path d="M29072 41756 L29043 41833" /> 
<path d="M29043 41833 L29014 41871" /> 
<path d="M29014 41871 L28957 41909" /> 
<path d="M28957 41909 L28900 41909" /> 
<path d="M28900 41909 L28843 41871" /> 
<path d="M28843 41871 L28814 41833" /> 
<path d="M28814 41833 L28786 41756" /> 
<path d="M28786 41756 L28757 41604" /> 
<path d="M28757 41604 L28757 41414" /> 
<path d="M28757 41414 L28786 41261" /> 
<path d="M28786 41261 L28814 41185" /> 
<path d="M28814 41185 L28843 41147" /> 
<path d="M28843 41147 L28900 41109" /> 
</g>
<g style="fill:#FFFF00; fill-opacity:0.0; 
  stroke:#FFFF00; stroke-linecap:round; stroke-linejoin:round; stroke-opacity:1.0; stroke-opacity:1.0; stroke-width:120" 
   transform="translate(0 0) scale(1 1)">
<path d="M29471 41109 L29528 41109" /> 
<path d="M29528 41109 L29585 41147" /> 
<path d="M29585 41147 L29614 41185" /> 
<path d="M29614 41185 L29643 41261" /> 
<path d="M29643 41261 L29671 41414" /> 
<path d="M29671 41414 L29671 41604" /> 
<path d="M29671 41604 L29643 41756" /> 
<path d="M29643 41756 L29614 41833" /> 
<path d="M29614 41833 L29585 41871" /> 
<path d="M29585 41871 L29528 41909" /> 
<path d="M29528 41909 L29471 41909" /> 
<path d="M29471 41909 L29414 41871" /> 
<path d="M29414 41871 L29385 41833" /> 
<path d="M29385 41833 L29357 41756" /> 
<path d="M29357 41756 L29328 41604" /> 
<path d="M29328 41604 L29328 41414" /> 
<path d="M29328 41414 L29357 41261" /> 
<path d="M29357 41261 L29385 41185" /> 
<path d="M29385 41185 L29414 41147" /> 
<path d="M29414 41147 L29471 41109" /> 
</g>
<g style="fill:#FFFF00; fill-opacity:0.0; 
  stroke:#FFFF00; stroke-linecap:round; stroke-linejoin:round; stroke-opacity:1.0; stroke-opacity:1.0; stroke-width:120" 
   transform="translate(0 0) scale(1 1)">
<path d="M30042 41109 L30099 41109" /> 
<path d="M30099 41109 L30156 41147" /> 
<path d="M30156 41147 L30185 41185" /> 
<path d="M30185 41185 L30214 41261" /> 
<path d="M30214 41261 L30242 41414" /> 
<path d="M30242 41414 L30242 41604" /> 
<path d="M30242 41604 L30214 41756" /> 
<path d="M30214 41756 L30185 41833" /> 
<path d="M30185 41833 L30156 41871" /> 
<path d="M30156 41871 L30099 41909" /> 
<path d="M30099 41909 L30042 41909" /> 
<path d="M30042 41909 L29985 41871" /> 
<path d="M29985 41871 L29956 41833" /> 
<path d="M29956 41833 L29928 41756" /> 
<path d="M29928 41756 L29899 41604" /> 
<path d="M29899 41604 L29899 41414" /> 
<path d="M29899 41414 L29928 41261" /> 
<path d="M29928 41261 L29956 41185" /> 
<path d="M29956 41185 L29985 41147" /> 
<path d="M29985 41147 L30042 41109" /> 
</g>
<g style="fill:#FFFF00; fill-opacity:0.0; 
  stroke:#FFFF00; stroke-linecap:round; stroke-linejoin:round; stroke-opacity:1.0; stroke-opacity:1.0; stroke-width:120" 
   transform="translate(0 0) scale(1 1)">
<path d="M30956 41909 L30956 41375" /> 
<g style = "stroke-linecap:round;" > 
<path d="M30956 41375 L30956 41375" /> 
</g></g>
<g style="fill:#FFFF00; fill-opacity:0.0; 
  stroke:#FFFF00; stroke-linecap:round; stroke-linejoin:round; stroke-opacity:1.0; stroke-opacity:1.0; stroke-width:120" 
   transform="translate(0 0) scale(1 1)">
<path d="M30956 41452 L30984 41414" /> 
<path d="M30984 41414 L31042 41375" /> 
<path d="M31042 41375 L31127 41375" /> 
<path d="M31127 41375 L31184 41414" /> 
<path d="M31184 41414 L31213 41490" /> 
<path d="M31213 41490 L31213 41909" /> 
<g style = "stroke-linecap:round;" > 
<path d="M31213 41909 L31213 41909" /> 
</g></g>
<g style="fill:#FFFF00; fill-opacity:0.0; 
  stroke:#FFFF00; stroke-linecap:round; stroke-linejoin:round; stroke-opacity:1.0; stroke-opacity:1.0; stroke-width:120" 
   transform="translate(0 0) scale(1 1)">
<path d="M31213 41490 L31242 41414" /> 
<path d="M31242 41414 L31299 41375" /> 
<path d="M31299 41375 L31384 41375" /> 
<path d="M31384 41375 L31442 41414" /> 
<path d="M31442 41414 L31470 41490" /> 
<path d="M31470 41490 L31470 41909" /> 
<g style = "stroke-linecap:round;" > 
<path d="M31470 41909 L31470 41909" /> 
</g></g>
<g style="fill:#FFFF00; fill-opacity:0.0; 
  stroke:#FFFF00; stroke-linecap:round; stroke-linejoin:round; stroke-opacity:1.0; stroke-opacity:1.0; stroke-width:120" 
   transform="translate(0 0) scale(1 1)">
<path d="M31756 41909 L31756 41375" /> 
<g style = "stroke-linecap:round;" > 
<path d="M31756 41375 L31756 41375" /> 
</g></g>
<g style="fill:#FFFF00; fill-opacity:0.0; 
  stroke:#FFFF00; stroke-linecap:round; stroke-linejoin:round; stroke-opacity:1.0; stroke-opacity:1.0; stroke-width:120" 
   transform="translate(0 0) scale(1 1)">
<path d="M31756 41452 L31784 41414" /> 
<path d="M31784 41414 L31842 41375" /> 
<path d="M31842 41375 L31927 41375" /> 
<path d="M31927 41375 L31984 41414" /> 
<path d="M31984 41414 L32013 41490" /> 
<path d="M32013 41490 L32013 41909" /> 
<g style = "stroke-linecap:round;" > 
<path d="M32013 41909 L32013 41909" /> 
</g></g>
<g style="fill:#FFFF00; fill-opacity:0.0; 
  stroke:#FFFF00; stroke-linecap:round; stroke-linejoin:round; stroke-opacity:1.0; stroke-opacity:1.0; stroke-width:120" 
   transform="translate(0 0) scale(1 1)">
<path d="M32013 41490 L32042 41414" /> 
<path d="M32042 41414 L32099 41375" /> 
<path d="M32099 41375 L32184 41375" /> 
<path d="M32184 41375 L32242 41414" /> 
<path d="M32242 41414 L32270 41490" /> 
<path d="M32270 41490 L32270 41909" /> 
<g style = "stroke-linecap:round;" > 
<path d="M32270 41909 L32270 41909" /> 
</g><path d="M9843 40945 L49213 40945" /> 
<path d="M9843 39370 L9843 42225" /> 
<path d="M49213 39370 L49213 42225" /> 
<path d="M48770 41175 L49213 40945" /> 
<path d="M48770 40715 L49213 40945" /> 
<path d="M9843 40945 L10286 41175" /> 
<path d="M9843 40945 L10286 40715" /> 
</g>
<g style="fill:#FFFF00; fill-opacity:0.0; 
  stroke:#FFFF00; stroke-linecap:round; stroke-linejoin:round; stroke-opacity:1.0; stroke-opacity:1.0; stroke-width:150" 
   transform="translate(0 0) scale(1 1)">
<path d="M9843 37402 L9843 9843" /> 
<path d="M9843 37402 L49213 37402" /> 
<path d="M49213 9843 L49213 37402" /> 
<path d="M9843 9843 L49213 9843" /> 
</g> 
</svg> 
